<svg width="105" height="105" viewBox="0 0 105 105" fill="none" xmlns="http://www.w3.org/2000/svg">
<path opacity="0.2" d="M52.5 105C81.4949 105 105 81.4949 105 52.5C105 23.5051 81.4949 0 52.5 0C23.5051 0 0 23.5051 0 52.5C0 81.4949 23.5051 105 52.5 105Z" fill="url(#paint0_linear)"/>
<path d="M52.25 78.5C66.7475 78.5 78.5 66.7475 78.5 52.25C78.5 37.7525 66.7475 26 52.25 26C37.7525 26 26 37.7525 26 52.25C26 66.7475 37.7525 78.5 52.25 78.5Z" fill="#00CCCC" stroke="#173753" stroke-width="3.402" stroke-linecap="round" stroke-linejoin="round"/>
<path d="M52.25 70.625C62.3982 70.625 70.625 62.3982 70.625 52.25C70.625 42.1018 62.3982 33.875 52.25 33.875C42.1018 33.875 33.875 42.1018 33.875 52.25C33.875 62.3982 42.1018 70.625 52.25 70.625Z" fill="#E5F9F9"/>
<path d="M48.248 51.707L48.9863 45.2031H56.1582V47.3213H51.0693L50.7529 50.0723C51.3564 49.75 51.998 49.5889 52.6777 49.5889C53.8965 49.5889 54.8516 49.9668 55.543 50.7227C56.2344 51.4785 56.5801 52.5361 56.5801 53.8955C56.5801 54.7217 56.4043 55.4629 56.0527 56.1191C55.707 56.7695 55.209 57.2764 54.5586 57.6396C53.9082 57.9971 53.1406 58.1758 52.2559 58.1758C51.4824 58.1758 50.7646 58.0205 50.1025 57.71C49.4404 57.3936 48.916 56.9512 48.5293 56.3828C48.1484 55.8145 47.9463 55.167 47.9229 54.4404H50.4365C50.4893 54.9736 50.6738 55.3896 50.9902 55.6885C51.3125 55.9814 51.7314 56.1279 52.2471 56.1279C52.8213 56.1279 53.2637 55.9229 53.5742 55.5127C53.8848 55.0967 54.04 54.5107 54.04 53.7549C54.04 53.0283 53.8613 52.4717 53.5039 52.085C53.1465 51.6982 52.6396 51.5049 51.9834 51.5049C51.3799 51.5049 50.8906 51.6631 50.5156 51.9795L50.2695 52.208L48.248 51.707Z" fill="#173753"/>
<defs>
<linearGradient id="paint0_linear" x1="42.7308" y1="6.3861" x2="77.7095" y2="105" gradientUnits="userSpaceOnUse">
<stop stop-color="#00C9C9" stop-opacity="0.147"/>
<stop offset="1" stop-color="#00C9C9" stop-opacity="0.699"/>
</linearGradient>
</defs>
</svg>
