<svg width="105" height="105" viewBox="0 0 105 105" fill="none" xmlns="http://www.w3.org/2000/svg">
<path opacity="0.2" d="M52.5 105C81.4949 105 105 81.4949 105 52.5C105 23.5051 81.4949 0 52.5 0C23.5051 0 0 23.5051 0 52.5C0 81.4949 23.5051 105 52.5 105Z" fill="url(#paint0_linear)"/>
<path d="M52.25 78.5C66.7475 78.5 78.5 66.7475 78.5 52.25C78.5 37.7525 66.7475 26 52.25 26C37.7525 26 26 37.7525 26 52.25C26 66.7475 37.7525 78.5 52.25 78.5Z" fill="#00CCCC" stroke="#173753" stroke-width="3.402" stroke-linecap="round" stroke-linejoin="round"/>
<path d="M52.25 70.625C62.3982 70.625 70.625 62.3982 70.625 52.25C70.625 42.1018 62.3982 33.875 52.25 33.875C42.1018 33.875 33.875 42.1018 33.875 52.25C33.875 62.3982 42.1018 70.625 52.25 70.625Z" fill="#E5F9F9"/>
<path d="M56.6416 58H47.8701V56.2598L52.0098 51.8477C52.5781 51.2266 52.9971 50.6846 53.2666 50.2217C53.542 49.7588 53.6797 49.3193 53.6797 48.9033C53.6797 48.335 53.5361 47.8896 53.249 47.5674C52.9619 47.2393 52.5518 47.0752 52.0186 47.0752C51.4443 47.0752 50.9902 47.2744 50.6562 47.6729C50.3281 48.0654 50.1641 48.584 50.1641 49.2285H47.6152C47.6152 48.4492 47.7998 47.7373 48.1689 47.0928C48.5439 46.4482 49.0713 45.9443 49.751 45.5811C50.4307 45.2119 51.2012 45.0273 52.0625 45.0273C53.3809 45.0273 54.4033 45.3438 55.1299 45.9766C55.8623 46.6094 56.2285 47.5029 56.2285 48.6572C56.2285 49.29 56.0645 49.9346 55.7363 50.5908C55.4082 51.2471 54.8457 52.0117 54.0488 52.8848L51.1396 55.9521H56.6416V58Z" fill="#173753"/>
<defs>
<linearGradient id="paint0_linear" x1="42.7308" y1="6.3861" x2="77.7095" y2="105" gradientUnits="userSpaceOnUse">
<stop stop-color="#00C9C9" stop-opacity="0.147"/>
<stop offset="1" stop-color="#00C9C9" stop-opacity="0.699"/>
</linearGradient>
</defs>
</svg>
