<svg width="105" height="105" viewBox="0 0 105 105" fill="none" xmlns="http://www.w3.org/2000/svg">
<path opacity="0.2" d="M52.5 105C81.4949 105 105 81.4949 105 52.5C105 23.5051 81.4949 0 52.5 0C23.5051 0 0 23.5051 0 52.5C0 81.4949 23.5051 105 52.5 105Z" fill="url(#paint0_linear)"/>
<path d="M52.25 78.5C66.7475 78.5 78.5 66.7475 78.5 52.25C78.5 37.7525 66.7475 26 52.25 26C37.7525 26 26 37.7525 26 52.25C26 66.7475 37.7525 78.5 52.25 78.5Z" fill="#00CCCC" stroke="#173753" stroke-width="3.402" stroke-linecap="round" stroke-linejoin="round"/>
<path d="M52.25 70.625C62.3982 70.625 70.625 62.3982 70.625 52.25C70.625 42.1018 62.3982 33.875 52.25 33.875C42.1018 33.875 33.875 42.1018 33.875 52.25C33.875 62.3982 42.1018 70.625 52.25 70.625Z" fill="#E5F9F9"/>
<path d="M50.4541 50.4766H51.8076C52.4521 50.4766 52.9297 50.3154 53.2402 49.9932C53.5508 49.6709 53.7061 49.2432 53.7061 48.71C53.7061 48.1943 53.5508 47.793 53.2402 47.5059C52.9355 47.2188 52.5137 47.0752 51.9746 47.0752C51.4883 47.0752 51.0811 47.21 50.7529 47.4795C50.4248 47.7432 50.2607 48.0889 50.2607 48.5166H47.7207C47.7207 47.8486 47.8994 47.251 48.2568 46.7236C48.6201 46.1904 49.124 45.7744 49.7686 45.4756C50.4189 45.1768 51.1338 45.0273 51.9131 45.0273C53.2666 45.0273 54.3271 45.3525 55.0947 46.0029C55.8623 46.6475 56.2461 47.5381 56.2461 48.6748C56.2461 49.2607 56.0674 49.7998 55.71 50.292C55.3525 50.7842 54.8838 51.1621 54.3037 51.4258C55.0244 51.6836 55.5605 52.0703 55.9121 52.5859C56.2695 53.1016 56.4482 53.7109 56.4482 54.4141C56.4482 55.5508 56.0322 56.4619 55.2002 57.1475C54.374 57.833 53.2783 58.1758 51.9131 58.1758C50.6357 58.1758 49.5898 57.8389 48.7754 57.165C47.9668 56.4912 47.5625 55.6006 47.5625 54.4932H50.1025C50.1025 54.9736 50.2812 55.3662 50.6387 55.6709C51.002 55.9756 51.4473 56.1279 51.9746 56.1279C52.5781 56.1279 53.0498 55.9697 53.3896 55.6533C53.7354 55.3311 53.9082 54.9062 53.9082 54.3789C53.9082 53.1016 53.2051 52.4629 51.7988 52.4629H50.4541V50.4766Z" fill="#173753"/>
<defs>
<linearGradient id="paint0_linear" x1="42.7308" y1="6.3861" x2="77.7095" y2="105" gradientUnits="userSpaceOnUse">
<stop stop-color="#00C9C9" stop-opacity="0.147"/>
<stop offset="1" stop-color="#00C9C9" stop-opacity="0.699"/>
</linearGradient>
</defs>
</svg>
