<svg width="105" height="105" viewBox="0 0 105 105" fill="none" xmlns="http://www.w3.org/2000/svg">
<path opacity="0.2" d="M52.5 105C81.4949 105 105 81.4949 105 52.5C105 23.5051 81.4949 0 52.5 0C23.5051 0 0 23.5051 0 52.5C0 81.4949 23.5051 105 52.5 105Z" fill="url(#paint0_linear)"/>
<path d="M52.25 78.5C66.7475 78.5 78.5 66.7475 78.5 52.25C78.5 37.7525 66.7475 26 52.25 26C37.7525 26 26 37.7525 26 52.25C26 66.7475 37.7525 78.5 52.25 78.5Z" fill="#00CCCC" stroke="#173753" stroke-width="3.402" stroke-linecap="round" stroke-linejoin="round"/>
<path d="M52.25 70.625C62.3982 70.625 70.625 62.3982 70.625 52.25C70.625 42.1018 62.3982 33.875 52.25 33.875C42.1018 33.875 33.875 42.1018 33.875 52.25C33.875 62.3982 42.1018 70.625 52.25 70.625Z" fill="#E5F9F9"/>
<path d="M54.7607 45.0713V47.1631H54.5146C53.3662 47.1807 52.4404 47.4795 51.7373 48.0596C51.04 48.6396 50.6211 49.4453 50.4805 50.4766C51.1602 49.7852 52.0186 49.4395 53.0557 49.4395C54.1689 49.4395 55.0537 49.8379 55.71 50.6348C56.3662 51.4316 56.6943 52.4805 56.6943 53.7812C56.6943 54.6133 56.5127 55.3662 56.1494 56.04C55.792 56.7139 55.2822 57.2383 54.6201 57.6133C53.9639 57.9883 53.2197 58.1758 52.3877 58.1758C51.04 58.1758 49.9502 57.707 49.1182 56.7695C48.292 55.832 47.8789 54.5811 47.8789 53.0166V52.1025C47.8789 50.7139 48.1396 49.4893 48.6611 48.4287C49.1885 47.3623 49.9414 46.5391 50.9199 45.959C51.9043 45.373 53.0439 45.0771 54.3389 45.0713H54.7607ZM52.2822 51.4785C51.8721 51.4785 51.5 51.5869 51.166 51.8037C50.832 52.0146 50.5859 52.2959 50.4277 52.6475V53.4209C50.4277 54.2705 50.5947 54.9355 50.9287 55.416C51.2627 55.8906 51.7314 56.1279 52.335 56.1279C52.8799 56.1279 53.3193 55.9141 53.6533 55.4863C53.9932 55.0527 54.1631 54.4932 54.1631 53.8076C54.1631 53.1104 53.9932 52.5479 53.6533 52.1201C53.3135 51.6924 52.8564 51.4785 52.2822 51.4785Z" fill="#173753"/>
<defs>
<linearGradient id="paint0_linear" x1="42.7308" y1="6.3861" x2="77.7095" y2="105" gradientUnits="userSpaceOnUse">
<stop stop-color="#00C9C9" stop-opacity="0.147"/>
<stop offset="1" stop-color="#00C9C9" stop-opacity="0.699"/>
</linearGradient>
</defs>
</svg>
