<svg width="40" height="40" viewBox="0 0 40 40" fill="none" xmlns="http://www.w3.org/2000/svg">
<path opacity="1" d="M20 0.5C30.7696 0.5 39.5 9.23045 39.5 20C39.5 30.7696 30.7696 39.5 20 39.5C9.23045 39.5 0.5 30.7696 0.5 20C0.5 9.23045 9.23045 0.5 20 0.5Z" stroke="#FFF"/>
<path fill-rule="evenodd" clip-rule="evenodd" d="M20 18.1526L16.311 21.8602C16.1255 22.0466 15.8247 22.0466 15.6392 21.8602C15.4536 21.6737 15.4536 21.3714 15.6392 21.185L19.6641 17.1398C19.8496 16.9534 20.1504 16.9534 20.3359 17.1398L24.3608 21.185C24.5464 21.3714 24.5464 21.6737 24.3608 21.8602C24.1753 22.0466 23.8745 22.0466 23.689 21.8602L20 18.1526Z" fill="white"/>
</svg>
